<?xml version="1.0" encoding="UTF-8"?>
<svg width="26px" height="26px" viewBox="0 0 26 26" version="1.1" xmlns="http://www.w3.org/2000/svg" xmlns:xlink="http://www.w3.org/1999/xlink">
    <!-- Generator: Sketch 64 (93537) - https://sketch.com -->
    <title>arrow</title>
    <desc>Created with Sketch.</desc>
    <g id="Page-1" stroke="none" stroke-width="1" fill="none" fill-rule="evenodd">
        <g id="arrow" fill="#221E41" fill-rule="nonzero">
            <path d="M13,0.00780400975 C9.671875,0.00780400975 6.339844,1.273438 3.804688,3.808594 C-1.261719,8.878906 -1.261719,17.125 3.808594,22.191406 C8.878906,27.261719 17.125,27.261719 22.191406,22.191406 C27.261719,17.121094 27.261719,8.875 22.191406,3.804688 C19.65625,1.273438 16.328125,0.003906 13,0.00780400975 Z M13,1.992188 C15.8125,1.992188 18.625,3.070313 20.777344,5.222656 C25.082031,9.527344 25.082031,16.472656 20.777344,20.777344 C16.472656,25.082031 9.527344,25.082031 5.222656,20.777344 C0.917969,16.472656 0.917969,9.527344 5.222656,5.222656 C7.375,3.070313 10.1875,1.996094 13,1.992188 Z M12.292969,8.050781 L14.414063,10.171875 L7.34375,17.242188 L8.757813,18.65625 L15.828125,11.585938 L17.949219,13.707031 L17.949219,8.050781 L12.292969,8.050781 Z" id="Shape"></path>
        </g>
    </g>
</svg>