<?xml version="1.0" encoding="UTF-8"?>
<svg width="24px" height="26px" viewBox="0 0 24 26" version="1.1" xmlns="http://www.w3.org/2000/svg" xmlns:xlink="http://www.w3.org/1999/xlink">
    <!-- Generator: Sketch 64 (93537) - https://sketch.com -->
    <title>cart</title>
    <desc>Created with Sketch.</desc>
    <g id="Page-1" stroke="none" stroke-width="1" fill="none" fill-rule="evenodd">
        <g id="cart" fill="#231D43" fill-rule="nonzero">
            <path d="M12,0 C9.253906,0 7,2.253906 7,5 L7,6 L2.0625,6 L2,6.9375 L1,24.9375 L0.9375,26 L23.0625,26 L23,24.9375 L22,6.9375 L21.9375,6 L17,6 L17,5 C17,2.253906 14.746094,0 12,0 Z M12,2 C13.65625,2 15,3.34375 15,5 L15,6 L9,6 L9,5 C9,3.34375 10.34375,2 12,2 Z M3.9375,8 L7,8 L7,11 L9,11 L9,8 L15,8 L15,11 L17,11 L17,8 L20.0625,8 L20.9375,24 L3.0625,24 L3.9375,8 Z" id="Shape"></path>
        </g>
    </g>
</svg>