<svg xmlns="http://www.w3.org/2000/svg" viewBox="0 0 249 68"><defs><style>.cls-1{fill:#fff;}.cls-2{fill:#fec73c;}.cls-3{fill:#f03a16;}.cls-4,.cls-5,.cls-6{fill:none;stroke:#000;}.cls-4,.cls-5{stroke-linecap:round;}.cls-4,.cls-6{stroke-miterlimit:10;}.cls-4{stroke-width:1.68px;}.cls-5{stroke-linejoin:round;}.cls-5,.cls-6{stroke-width:2px;}.cls-7{fill:#241f42;}</style></defs><g id="Layer_2" data-name="Layer 2"><g id="Layer_1-2" data-name="Layer 1"><path class="cls-1" d="M227.81,0H21.19C9.49,0,0,9,0,20V34c0,11,9.49,20,21.19,20H185.43l11.65,14L209.8,54h18c11.7,0,21.19-9,21.19-20V20C249,9,239.51,0,227.81,0Z"/><circle class="cls-2" cx="50.01" cy="26.82" r="13.5"/><path class="cls-3" d="M55.36,32.32a19.15,19.15,0,0,1,2.09,3.06,8.33,8.33,0,0,1,.76,2.84A2.43,2.43,0,0,1,57.4,40a2,2,0,0,1-2,0c-.39-.2-.89-.52-1.62-2.18a18,18,0,0,1-1.23-4.17Z"/><path class="cls-4" d="M47.27,23.82a2.67,2.67,0,0,0-4.89,0"/><path class="cls-4" d="M57,23.82a2.67,2.67,0,0,0-4.89,0"/><path class="cls-5" d="M42.51,30.76a9.4,9.4,0,0,0,6.87,3.75,9.16,9.16,0,0,0,8.12-4.37"/><path class="cls-6" d="M55.07,39.87a1.88,1.88,0,0,0,.59.45,2,2,0,0,0,2,0,2.48,2.48,0,0,0,.82-1.81,2.74,2.74,0,0,0,0-.55,14,14,0,1,0-3.41,1.91Z"/><path class="cls-7" d="M89.06,32.58a5.88,5.88,0,0,1-2.45-.47A3.53,3.53,0,0,1,85,30.65a5.12,5.12,0,0,1-.62-2.45c0-.46,0-.92,0-1.36s0-.91,0-1.38A4.85,4.85,0,0,1,85,23a3.72,3.72,0,0,1,1.62-1.47,6.06,6.06,0,0,1,4.82,0A3.77,3.77,0,0,1,93.11,23a5.07,5.07,0,0,1,.64,2.43q0,.7,0,1.38c0,.44,0,.9,0,1.36a5.12,5.12,0,0,1-.63,2.45,3.51,3.51,0,0,1-1.61,1.46A5.88,5.88,0,0,1,89.06,32.58Zm0-1.84a2.32,2.32,0,0,0,1.69-.62,2.76,2.76,0,0,0,.71-2c0-.47,0-.91,0-1.31s0-.83,0-1.29A3.43,3.43,0,0,0,91.11,24a1.87,1.87,0,0,0-.84-.85,2.92,2.92,0,0,0-2.41,0A2,2,0,0,0,87,24a3.58,3.58,0,0,0-.35,1.51c0,.46,0,.89,0,1.29s0,.84,0,1.31a2.81,2.81,0,0,0,.71,2A2.31,2.31,0,0,0,89.06,30.74Z"/><path class="cls-7" d="M96.07,32.42a.41.41,0,0,1-.28-.11.4.4,0,0,1-.11-.27V24.49a.38.38,0,0,1,.39-.39h1.24a.38.38,0,0,1,.39.39V25a2.72,2.72,0,0,1,.9-.76,2.87,2.87,0,0,1,1.35-.33,2.54,2.54,0,0,1,2.55,1.42,2.77,2.77,0,0,1,1.06-1,3.23,3.23,0,0,1,3.06,0,2.71,2.71,0,0,1,1.07,1.17,4.33,4.33,0,0,1,.39,2V32a.4.4,0,0,1-.11.27.39.39,0,0,1-.27.11h-1.31a.41.41,0,0,1-.28-.11A.4.4,0,0,1,106,32V27.57a2.58,2.58,0,0,0-.21-1.14,1.22,1.22,0,0,0-.56-.6,1.66,1.66,0,0,0-.78-.18,1.49,1.49,0,0,0-.7.18,1.35,1.35,0,0,0-.58.6,2.43,2.43,0,0,0-.22,1.14V32a.37.37,0,0,1-.12.27.37.37,0,0,1-.27.11h-1.31a.37.37,0,0,1-.27-.11.36.36,0,0,1-.11-.27V27.57a2.42,2.42,0,0,0-.23-1.14,1.38,1.38,0,0,0-.57-.6,1.67,1.67,0,0,0-.76-.18,1.49,1.49,0,0,0-.72.19,1.38,1.38,0,0,0-.57.6,2.35,2.35,0,0,0-.23,1.13V32a.36.36,0,0,1-.11.27.37.37,0,0,1-.27.11Z"/><path class="cls-7" d="M110.45,28.53a.34.34,0,0,1-.28-.11.36.36,0,0,1-.1-.27V27.09a.39.39,0,0,1,.1-.27.38.38,0,0,1,.28-.11h4.91a.37.37,0,0,1,.27.11.37.37,0,0,1,.12.27v1.06a.34.34,0,0,1-.12.27.33.33,0,0,1-.27.11Z"/><path class="cls-7" d="M118.19,32.42a.38.38,0,0,1-.38-.38V24.49a.41.41,0,0,1,.11-.28.4.4,0,0,1,.27-.11h1.32a.4.4,0,0,1,.27.11.41.41,0,0,1,.11.28v.65a3.48,3.48,0,0,1,1.06-.86,3.55,3.55,0,0,1,1.61-.34,3.23,3.23,0,0,1,1.7.44,2.91,2.91,0,0,1,1.11,1.24,4.32,4.32,0,0,1,.39,1.92V32a.4.4,0,0,1-.11.27.39.39,0,0,1-.27.11H124a.37.37,0,0,1-.27-.11.36.36,0,0,1-.11-.27v-4.4a2.18,2.18,0,0,0-.46-1.46,1.65,1.65,0,0,0-1.32-.53,1.74,1.74,0,0,0-1.33.53,2,2,0,0,0-.49,1.46V32a.37.37,0,0,1-.12.27.37.37,0,0,1-.27.11Z"/><path class="cls-7" d="M131.47,32.58a4.65,4.65,0,0,1-2.15-.45A3.18,3.18,0,0,1,128,30.87a4.57,4.57,0,0,1-.52-1.91c0-.19,0-.42,0-.7s0-.51,0-.7a4.27,4.27,0,0,1,.54-1.92,3.24,3.24,0,0,1,1.34-1.25,5.22,5.22,0,0,1,4.24,0,3.33,3.33,0,0,1,1.35,1.25,4.27,4.27,0,0,1,.53,1.92c0,.19,0,.42,0,.7s0,.51,0,.7a4.29,4.29,0,0,1-.52,1.91,3.06,3.06,0,0,1-1.33,1.26A4.62,4.62,0,0,1,131.47,32.58Zm0-1.58a1.65,1.65,0,0,0,1.32-.54,2.58,2.58,0,0,0,.51-1.58c0-.16,0-.36,0-.62s0-.46,0-.62a2.58,2.58,0,0,0-.51-1.58,1.87,1.87,0,0,0-2.63,0,2.52,2.52,0,0,0-.51,1.58c0,.16,0,.36,0,.62s0,.46,0,.62a2.52,2.52,0,0,0,.51,1.58A1.64,1.64,0,0,0,131.47,31Z"/><path class="cls-7" d="M137.65,32.42a.37.37,0,0,1-.27-.11.37.37,0,0,1-.12-.27V24.49a.38.38,0,0,1,.12-.28.37.37,0,0,1,.27-.11h1.25a.4.4,0,0,1,.27.11.41.41,0,0,1,.11.28V25a2.82,2.82,0,0,1,.9-.76,2.88,2.88,0,0,1,1.36-.33,2.54,2.54,0,0,1,2.54,1.42,2.84,2.84,0,0,1,1.06-1,3.13,3.13,0,0,1,1.55-.39,3.08,3.08,0,0,1,1.51.38,2.71,2.71,0,0,1,1.07,1.17,4.33,4.33,0,0,1,.39,2V32a.36.36,0,0,1-.11.27.37.37,0,0,1-.27.11H148a.37.37,0,0,1-.27-.11.37.37,0,0,1-.12-.27V27.57a2.59,2.59,0,0,0-.2-1.14,1.31,1.31,0,0,0-.56-.6,1.73,1.73,0,0,0-.79-.18,1.52,1.52,0,0,0-.7.18,1.35,1.35,0,0,0-.58.6,2.43,2.43,0,0,0-.22,1.14V32a.4.4,0,0,1-.11.27.41.41,0,0,1-.28.11h-1.31a.38.38,0,0,1-.38-.38V27.57a2.42,2.42,0,0,0-.23-1.14,1.33,1.33,0,0,0-.57-.6,1.66,1.66,0,0,0-.75-.18,1.44,1.44,0,0,0-.72.19,1.35,1.35,0,0,0-.58.6,2.36,2.36,0,0,0-.22,1.13V32a.37.37,0,0,1-.12.27.37.37,0,0,1-.27.11Z"/><path class="cls-7" d="M152,28.53a.34.34,0,0,1-.28-.11.36.36,0,0,1-.1-.27V27.09a.39.39,0,0,1,.1-.27.38.38,0,0,1,.28-.11h4.91a.41.41,0,0,1,.28.11.4.4,0,0,1,.11.27v1.06a.38.38,0,0,1-.39.38Z"/><path class="cls-7" d="M159.78,32.42a.41.41,0,0,1-.28-.11.4.4,0,0,1-.11-.27V24.49a.38.38,0,0,1,.39-.39h1.31a.38.38,0,0,1,.38.39v.65a3.41,3.41,0,0,1,1.07-.86,3.48,3.48,0,0,1,1.6-.34,3.21,3.21,0,0,1,1.7.44A2.91,2.91,0,0,1,167,25.62a4.32,4.32,0,0,1,.39,1.92V32a.36.36,0,0,1-.11.27.37.37,0,0,1-.27.11h-1.41a.38.38,0,0,1-.38-.38v-4.4a2.13,2.13,0,0,0-.46-1.46,1.65,1.65,0,0,0-1.32-.53,1.77,1.77,0,0,0-1.33.53,2,2,0,0,0-.49,1.46V32a.4.4,0,0,1-.11.27.41.41,0,0,1-.28.11Z"/><path class="cls-7" d="M173.06,32.58a4.7,4.7,0,0,1-2.16-.45,3.09,3.09,0,0,1-1.32-1.26,4.29,4.29,0,0,1-.52-1.91c0-.19,0-.42,0-.7s0-.51,0-.7a4.27,4.27,0,0,1,.53-1.92,3.27,3.27,0,0,1,1.35-1.25,4.55,4.55,0,0,1,2.12-.45,4.61,4.61,0,0,1,2.12.45,3.24,3.24,0,0,1,1.34,1.25,4.4,4.4,0,0,1,.54,1.92c0,.19,0,.42,0,.7s0,.51,0,.7a4.57,4.57,0,0,1-.52,1.91,3.18,3.18,0,0,1-1.33,1.26A4.65,4.65,0,0,1,173.06,32.58Zm0-1.58a1.64,1.64,0,0,0,1.31-.54,2.52,2.52,0,0,0,.51-1.58c0-.16,0-.36,0-.62s0-.46,0-.62a2.52,2.52,0,0,0-.51-1.58,1.87,1.87,0,0,0-2.63,0,2.52,2.52,0,0,0-.51,1.58c0,.16,0,.36,0,.62s0,.46,0,.62a2.52,2.52,0,0,0,.51,1.58A1.65,1.65,0,0,0,173.06,31Z"/><path class="cls-7" d="M179.23,32.42a.38.38,0,0,1-.38-.38V24.49a.41.41,0,0,1,.11-.28.4.4,0,0,1,.27-.11h1.25a.37.37,0,0,1,.27.11.38.38,0,0,1,.12.28V25a2.72,2.72,0,0,1,.9-.76,2.87,2.87,0,0,1,1.35-.33,2.53,2.53,0,0,1,2.54,1.42,2.79,2.79,0,0,1,1.07-1,3.23,3.23,0,0,1,3.06,0,2.71,2.71,0,0,1,1.07,1.17,4.33,4.33,0,0,1,.39,2V32a.38.38,0,0,1-.38.38h-1.32a.38.38,0,0,1-.38-.38V27.57a2.58,2.58,0,0,0-.21-1.14,1.26,1.26,0,0,0-.56-.6,1.66,1.66,0,0,0-.78-.18,1.56,1.56,0,0,0-.71.18,1.38,1.38,0,0,0-.57.6,2.42,2.42,0,0,0-.23,1.14V32a.36.36,0,0,1-.11.27.37.37,0,0,1-.27.11h-1.31a.41.41,0,0,1-.28-.11A.4.4,0,0,1,184,32V27.57a2.43,2.43,0,0,0-.22-1.14,1.35,1.35,0,0,0-.58-.6,1.6,1.6,0,0,0-.75-.18,1.49,1.49,0,0,0-.72.19,1.4,1.4,0,0,0-.58.6,2.49,2.49,0,0,0-.22,1.13V32a.38.38,0,0,1-.38.38Z"/><path class="cls-7" d="M193.57,32.42a.37.37,0,0,1-.27-.11.37.37,0,0,1-.12-.27V30.45a.4.4,0,0,1,.12-.29.37.37,0,0,1,.27-.11h1.6a.37.37,0,0,1,.27.11.44.44,0,0,1,.11.29V32a.4.4,0,0,1-.11.27.37.37,0,0,1-.27.11Z"/><path class="cls-7" d="M197.86,32.42a.41.41,0,0,1-.28-.11.4.4,0,0,1-.11-.27V30.45a.44.44,0,0,1,.11-.29.41.41,0,0,1,.28-.11h1.6a.4.4,0,0,1,.27.11.44.44,0,0,1,.11.29V32a.38.38,0,0,1-.38.38Z"/><path class="cls-7" d="M202.14,32.42a.38.38,0,0,1-.38-.38V30.45a.44.44,0,0,1,.11-.29.4.4,0,0,1,.27-.11h1.61a.4.4,0,0,1,.27.11.44.44,0,0,1,.11.29V32a.38.38,0,0,1-.38.38Z"/></g></g></svg>