<svg xmlns="http://www.w3.org/2000/svg" viewBox="0 0 249 68"><defs><style>.cls-1{fill:#fff;}.cls-2{fill:#fec73c;}.cls-3{fill:#f03a16;}.cls-4,.cls-5,.cls-6,.cls-7{fill:none;stroke:#000;}.cls-4,.cls-5,.cls-6{stroke-linecap:round;}.cls-4,.cls-6,.cls-7{stroke-linejoin:round;}.cls-4,.cls-5{stroke-width:1.68px;}.cls-5{stroke-miterlimit:10;}.cls-6,.cls-7{stroke-width:1.7px;}.cls-8{fill:#241f42;}</style></defs><g id="Layer_2" data-name="Layer 2"><g id="Layer_1-2" data-name="Layer 1"><path class="cls-1" d="M227.81,0H21.19C9.49,0,0,9,0,20V34c0,11,9.49,20,21.19,20H185.43l11.65,14L209.8,54h18c11.7,0,21.19-9,21.19-20V20C249,9,239.51,0,227.81,0Z"/><circle class="cls-2" cx="49.97" cy="27.33" r="13.85"/><path class="cls-3" d="M59.23,20.71c3.1-1.56,4.67-4.08,4.22-5.85a2.85,2.85,0,0,0-2.29-2.15,2.35,2.35,0,0,0-1.93.92h0a2.58,2.58,0,0,0-2-.92,2.85,2.85,0,0,0-2.29,2.15C54.48,16.63,56.12,19.15,59.23,20.71Z"/><path class="cls-3" d="M40.76,22.39c3.1-1.57,4.68-4.08,4.22-5.85a2.85,2.85,0,0,0-2.29-2.15,2.36,2.36,0,0,0-1.93.92h0a2.52,2.52,0,0,0-2-.92,2.84,2.84,0,0,0-2.29,2.15C36,18.31,37.66,20.82,40.76,22.39Z"/><path class="cls-3" d="M59.23,40c3.1-1.57,4.67-4.09,4.22-5.85A2.88,2.88,0,0,0,61.16,32a2.35,2.35,0,0,0-1.93.92h0a2.58,2.58,0,0,0-2-.92,2.88,2.88,0,0,0-2.29,2.16C54.48,35.93,56.12,38.45,59.23,40Z"/><path class="cls-4" d="M55.47,31.17a8.75,8.75,0,0,1-11.12,0"/><path class="cls-5" d="M47.47,24.14a2.67,2.67,0,0,0-3.53-1.35,2.71,2.71,0,0,0-1.36,1.35"/><path class="cls-5" d="M57.24,24.14a2.68,2.68,0,0,0-4.89,0"/><path class="cls-6" d="M43.62,14.92a14,14,0,0,1,11.32-.43"/><path class="cls-6" d="M57.41,39.33A14.05,14.05,0,0,1,37.61,20.5"/><path class="cls-6" d="M61.24,19.45A14,14,0,0,1,62.66,33.1"/><path class="cls-7" d="M61.24,19.45C63,18,63.77,16.23,63.43,14.89a2.91,2.91,0,0,0-2.32-2.18,2.36,2.36,0,0,0-2,.93,2.64,2.64,0,0,0-1.89-.94h-.14a2.73,2.73,0,0,0-2.18,1.78"/><path class="cls-7" d="M43.62,14.92a2.22,2.22,0,0,0-1.24-.51,2.39,2.39,0,0,0-2,.93,2.68,2.68,0,0,0-1.89-.94h-.14a2.92,2.92,0,0,0-2.33,2.19c-.29,1.14.29,2.58,1.55,3.9"/><path class="cls-7" d="M57.41,39.33a12.25,12.25,0,0,0,1.74,1.08c3.14-1.59,4.74-4.14,4.28-5.94a3.75,3.75,0,0,0-.77-1.37"/><path class="cls-8" d="M88.77,32a6,6,0,0,1-2.49-.44,3.65,3.65,0,0,1-1.52-1.15,2.63,2.63,0,0,1-.55-1.5.31.31,0,0,1,.33-.33H86a.46.46,0,0,1,.31.09.74.74,0,0,1,.18.21,1.78,1.78,0,0,0,.37.6,2,2,0,0,0,.74.49,3.21,3.21,0,0,0,1.2.19,3.18,3.18,0,0,0,1.72-.38,1.21,1.21,0,0,0,.56-1,1,1,0,0,0-.3-.75,3,3,0,0,0-.94-.51A16.7,16.7,0,0,0,88.14,27a9.38,9.38,0,0,1-2-.69,3.1,3.1,0,0,1-1.21-1,2.89,2.89,0,0,1-.41-1.59A2.85,2.85,0,0,1,85,22a3.44,3.44,0,0,1,1.44-1.13,6.18,6.18,0,0,1,4.08-.14,4,4,0,0,1,1.32.74,3.27,3.27,0,0,1,.81,1,2.28,2.28,0,0,1,.3,1,.35.35,0,0,1-.09.23.31.31,0,0,1-.25.11H91.13a.59.59,0,0,1-.25-.07.42.42,0,0,1-.21-.24,1.33,1.33,0,0,0-.62-.85,2.47,2.47,0,0,0-1.36-.35,2.74,2.74,0,0,0-1.4.32,1.09,1.09,0,0,0-.52,1,1.07,1.07,0,0,0,.26.75,2.3,2.3,0,0,0,.85.52,15.49,15.49,0,0,0,1.54.48,11.59,11.59,0,0,1,2.23.7,3,3,0,0,1,1.26,1,2.78,2.78,0,0,1,.4,1.56,2.89,2.89,0,0,1-.57,1.8,3.59,3.59,0,0,1-1.59,1.14A6.45,6.45,0,0,1,88.77,32Z"/><path class="cls-8" d="M98.64,32a4.62,4.62,0,0,1-2.15-.45,3,3,0,0,1-1.33-1.26,4.25,4.25,0,0,1-.52-1.9c0-.2,0-.43,0-.71s0-.51,0-.7a4.19,4.19,0,0,1,.53-1.91,3.29,3.29,0,0,1,1.35-1.26,5.22,5.22,0,0,1,4.24,0,3.2,3.2,0,0,1,1.34,1.26,4.07,4.07,0,0,1,.54,1.91c0,.19,0,.43,0,.7s0,.51,0,.71a4.39,4.39,0,0,1-.52,1.9,3.12,3.12,0,0,1-1.33,1.26A4.65,4.65,0,0,1,98.64,32Zm0-1.58a1.64,1.64,0,0,0,1.31-.54,2.51,2.51,0,0,0,.51-1.57c0-.16,0-.37,0-.63s0-.46,0-.62a2.52,2.52,0,0,0-.51-1.58,1.88,1.88,0,0,0-2.62,0,2.58,2.58,0,0,0-.52,1.58c0,.16,0,.37,0,.62s0,.47,0,.63a2.57,2.57,0,0,0,.52,1.57A1.63,1.63,0,0,0,98.64,30.41Z"/><path class="cls-8" d="M108.11,32a4.65,4.65,0,0,1-2.15-.45,3.06,3.06,0,0,1-1.33-1.26,4.39,4.39,0,0,1-.52-1.9c0-.2,0-.43,0-.71s0-.51,0-.7a4.07,4.07,0,0,1,.54-1.91A3.2,3.2,0,0,1,106,23.8a5.22,5.22,0,0,1,4.24,0,3.2,3.2,0,0,1,1.34,1.26,4.07,4.07,0,0,1,.54,1.91c0,.19,0,.43,0,.7s0,.51,0,.71a4.39,4.39,0,0,1-.52,1.9,3.06,3.06,0,0,1-1.33,1.26A4.65,4.65,0,0,1,108.11,32Zm0-1.58a1.63,1.63,0,0,0,1.31-.54,2.51,2.51,0,0,0,.51-1.57c0-.16,0-.37,0-.63s0-.46,0-.62a2.52,2.52,0,0,0-.51-1.58,1.88,1.88,0,0,0-2.62,0,2.52,2.52,0,0,0-.51,1.58c0,.16,0,.37,0,.62s0,.47,0,.63a2.51,2.51,0,0,0,.51,1.57A1.63,1.63,0,0,0,108.11,30.41Z"/><path class="cls-8" d="M117.58,32a4.65,4.65,0,0,1-2.15-.45,3.12,3.12,0,0,1-1.33-1.26,4.39,4.39,0,0,1-.52-1.9c0-.2,0-.43,0-.71s0-.51,0-.7a4.07,4.07,0,0,1,.54-1.91,3.2,3.2,0,0,1,1.34-1.26,5.22,5.22,0,0,1,4.24,0,3.29,3.29,0,0,1,1.35,1.26,4.19,4.19,0,0,1,.53,1.91c0,.19,0,.43,0,.7s0,.51,0,.71a4.25,4.25,0,0,1-.52,1.9,3,3,0,0,1-1.33,1.26A4.62,4.62,0,0,1,117.58,32Zm0-1.58a1.63,1.63,0,0,0,1.31-.54,2.57,2.57,0,0,0,.52-1.57c0-.16,0-.37,0-.63s0-.46,0-.62a2.58,2.58,0,0,0-.52-1.58,1.88,1.88,0,0,0-2.62,0,2.52,2.52,0,0,0-.51,1.58c0,.16,0,.37,0,.62s0,.47,0,.63a2.51,2.51,0,0,0,.51,1.57A1.64,1.64,0,0,0,117.58,30.41Z"/><path class="cls-8" d="M127.05,32a4.65,4.65,0,0,1-2.15-.45,3.12,3.12,0,0,1-1.33-1.26,4.53,4.53,0,0,1-.52-1.9c0-.2,0-.43,0-.71s0-.51,0-.7a4.32,4.32,0,0,1,.54-1.91,3.2,3.2,0,0,1,1.34-1.26,4.61,4.61,0,0,1,2.12-.45,4.55,4.55,0,0,1,2.12.45,3.23,3.23,0,0,1,1.35,1.26,4.19,4.19,0,0,1,.53,1.91c0,.19,0,.43,0,.7s0,.51,0,.71a4.25,4.25,0,0,1-.52,1.9,3,3,0,0,1-1.32,1.26A4.7,4.7,0,0,1,127.05,32Zm0-1.58a1.65,1.65,0,0,0,1.32-.54,2.51,2.51,0,0,0,.51-1.57c0-.16,0-.37,0-.63s0-.46,0-.62a2.52,2.52,0,0,0-.51-1.58,1.9,1.9,0,0,0-2.63,0,2.52,2.52,0,0,0-.51,1.58c0,.16,0,.37,0,.62s0,.47,0,.63a2.51,2.51,0,0,0,.51,1.57A1.64,1.64,0,0,0,127.05,30.41Z"/><path class="cls-8" d="M136.53,32a4.67,4.67,0,0,1-2.16-.45,3,3,0,0,1-1.32-1.26,4.25,4.25,0,0,1-.52-1.9c0-.2,0-.43,0-.71s0-.51,0-.7a4.19,4.19,0,0,1,.53-1.91,3.23,3.23,0,0,1,1.35-1.26,4.55,4.55,0,0,1,2.12-.45,4.61,4.61,0,0,1,2.12.45A3.26,3.26,0,0,1,140,25.06a4.32,4.32,0,0,1,.54,1.91c0,.19,0,.43,0,.7s0,.51,0,.71a4.53,4.53,0,0,1-.52,1.9,3.12,3.12,0,0,1-1.33,1.26A4.65,4.65,0,0,1,136.53,32Zm0-1.58a1.64,1.64,0,0,0,1.31-.54,2.51,2.51,0,0,0,.51-1.57c0-.16,0-.37,0-.63s0-.46,0-.62a2.52,2.52,0,0,0-.51-1.58,1.9,1.9,0,0,0-2.63,0,2.52,2.52,0,0,0-.51,1.58c0,.16,0,.37,0,.62s0,.47,0,.63a2.51,2.51,0,0,0,.51,1.57A1.65,1.65,0,0,0,136.53,30.41Z"/><path class="cls-8" d="M149.07,32a3.49,3.49,0,0,1-1.46-.28,2.7,2.7,0,0,1-1.05-.79,3.58,3.58,0,0,1-.64-1.21,5.56,5.56,0,0,1-.26-1.53c0-.19,0-.36,0-.52s0-.32,0-.52a5.72,5.72,0,0,1,.25-1.48,3.5,3.5,0,0,1,.64-1.21,2.76,2.76,0,0,1,1.06-.81,3.49,3.49,0,0,1,1.46-.29,3.22,3.22,0,0,1,1.46.3,3.08,3.08,0,0,1,1,.76V20.86a.41.41,0,0,1,.11-.28.38.38,0,0,1,.28-.11h1.36a.4.4,0,0,1,.27.11.41.41,0,0,1,.11.28V31.45a.39.39,0,0,1-.11.27.4.4,0,0,1-.27.11H152a.39.39,0,0,1-.28-.11.38.38,0,0,1-.1-.27v-.59a3.16,3.16,0,0,1-1,.81A3.23,3.23,0,0,1,149.07,32Zm.59-1.71a1.72,1.72,0,0,0,1.07-.3,1.91,1.91,0,0,0,.6-.78,3,3,0,0,0,.2-1c0-.19,0-.4,0-.61s0-.43,0-.62a2.26,2.26,0,0,0-.22-.92,1.87,1.87,0,0,0-.61-.73,1.75,1.75,0,0,0-1-.29,1.69,1.69,0,0,0-1.06.3,1.73,1.73,0,0,0-.57.78,3.5,3.5,0,0,0-.21,1.05q0,.48,0,1a3.5,3.5,0,0,0,.21,1.06,1.65,1.65,0,0,0,.57.77A1.69,1.69,0,0,0,149.66,30.28Z"/><path class="cls-8" d="M159.37,32a3.83,3.83,0,0,1-2.81-1,4.13,4.13,0,0,1-1.12-2.91c0-.11,0-.25,0-.41a3.53,3.53,0,0,1,0-.39,4.61,4.61,0,0,1,.55-2.09,3.44,3.44,0,0,1,1.35-1.35,4.23,4.23,0,0,1,2-.47,4.1,4.1,0,0,1,2.18.54,3.38,3.38,0,0,1,1.33,1.49,5.05,5.05,0,0,1,.45,2.2v.33a.34.34,0,0,1-.12.27.36.36,0,0,1-.28.12h-5.32v.12a2.92,2.92,0,0,0,.22,1,1.85,1.85,0,0,0,.59.76,1.54,1.54,0,0,0,.94.28,1.83,1.83,0,0,0,.75-.13,2.14,2.14,0,0,0,.5-.31l.27-.29a.6.6,0,0,1,.23-.23.62.62,0,0,1,.26,0h1.38a.37.37,0,0,1,.26.09.28.28,0,0,1,.09.24,1.42,1.42,0,0,1-.26.63,3.68,3.68,0,0,1-.71.72,4.33,4.33,0,0,1-1.16.58A5.23,5.23,0,0,1,159.37,32Zm-1.76-5h3.54V26.9a2.65,2.65,0,0,0-.21-1.09,1.65,1.65,0,0,0-.61-.74,1.72,1.72,0,0,0-1-.26,1.77,1.77,0,0,0-1,.26,1.7,1.7,0,0,0-.6.74,2.83,2.83,0,0,0-.2,1.09Z"/><path class="cls-8" d="M165.42,31.83a.37.37,0,0,1-.27-.11.35.35,0,0,1-.11-.27V20.86a.38.38,0,0,1,.38-.39h1.33a.38.38,0,0,1,.38.39V31.45a.35.35,0,0,1-.11.27.37.37,0,0,1-.27.11Z"/><path class="cls-8" d="M169.58,22.14a.34.34,0,0,1-.27-.12.33.33,0,0,1-.11-.27V20.6a.38.38,0,0,1,.38-.38H171a.39.39,0,0,1,.29.11.37.37,0,0,1,.11.27v1.15a.37.37,0,0,1-.11.27.4.4,0,0,1-.29.12Zm.07,9.69a.41.41,0,0,1-.28-.11.39.39,0,0,1-.11-.27V23.9a.38.38,0,0,1,.39-.39H171a.38.38,0,0,1,.28.11.41.41,0,0,1,.11.28v7.55a.39.39,0,0,1-.11.27.38.38,0,0,1-.28.11Z"/><path class="cls-8" d="M177.09,32a4.49,4.49,0,0,1-2-.43,3.24,3.24,0,0,1-1.36-1.26,4.22,4.22,0,0,1-.53-2,5.64,5.64,0,0,1,0-.63,6.13,6.13,0,0,1,0-.65,4.22,4.22,0,0,1,.53-2,3.24,3.24,0,0,1,1.36-1.26,4.63,4.63,0,0,1,2-.43,4.74,4.74,0,0,1,1.74.28,3.69,3.69,0,0,1,1.18.72,3.53,3.53,0,0,1,.7.91,2.28,2.28,0,0,1,.25.86.31.31,0,0,1-.11.28.4.4,0,0,1-.28.1h-1.4a.33.33,0,0,1-.25-.08.67.67,0,0,1-.17-.24,1.86,1.86,0,0,0-.63-.9,1.73,1.73,0,0,0-1-.26,1.62,1.62,0,0,0-1.27.5,2.36,2.36,0,0,0-.51,1.59,10.44,10.44,0,0,0,0,1.12,2.33,2.33,0,0,0,.51,1.6,1.66,1.66,0,0,0,1.27.5,1.75,1.75,0,0,0,1-.27,1.82,1.82,0,0,0,.62-.9.67.67,0,0,1,.17-.24.37.37,0,0,1,.25-.08h1.4a.4.4,0,0,1,.28.1.33.33,0,0,1,.11.28,2.16,2.16,0,0,1-.15.65,3.06,3.06,0,0,1-.44.74,3.29,3.29,0,0,1-.74.69,4.15,4.15,0,0,1-1.08.5A5,5,0,0,1,177.09,32Z"/><path class="cls-8" d="M182.94,22.14a.34.34,0,0,1-.27-.12.33.33,0,0,1-.11-.27V20.6a.38.38,0,0,1,.38-.38h1.46a.39.39,0,0,1,.29.11.37.37,0,0,1,.11.27v1.15a.37.37,0,0,1-.11.27.4.4,0,0,1-.29.12Zm.07,9.69a.41.41,0,0,1-.28-.11.39.39,0,0,1-.11-.27V23.9a.38.38,0,0,1,.39-.39h1.32a.38.38,0,0,1,.28.11.41.41,0,0,1,.11.28v7.55a.39.39,0,0,1-.11.27.38.38,0,0,1-.28.11Z"/><path class="cls-8" d="M190.53,32a4.67,4.67,0,0,1-2.16-.45,3,3,0,0,1-1.32-1.26,4.25,4.25,0,0,1-.52-1.9c0-.2,0-.43,0-.71s0-.51,0-.7a4.19,4.19,0,0,1,.53-1.91,3.23,3.23,0,0,1,1.35-1.26,4.55,4.55,0,0,1,2.12-.45,4.61,4.61,0,0,1,2.12.45A3.26,3.26,0,0,1,194,25.06a4.32,4.32,0,0,1,.54,1.91c0,.19,0,.43,0,.7s0,.51,0,.71a4.53,4.53,0,0,1-.52,1.9,3.12,3.12,0,0,1-1.33,1.26A4.65,4.65,0,0,1,190.53,32Zm0-1.58a1.64,1.64,0,0,0,1.31-.54,2.51,2.51,0,0,0,.51-1.57c0-.16,0-.37,0-.63s0-.46,0-.62a2.52,2.52,0,0,0-.51-1.58,1.9,1.9,0,0,0-2.63,0,2.52,2.52,0,0,0-.51,1.58c0,.16,0,.37,0,.62s0,.47,0,.63a2.51,2.51,0,0,0,.51,1.57A1.65,1.65,0,0,0,190.53,30.41Z"/><path class="cls-8" d="M199.41,32a3.06,3.06,0,0,1-1.69-.44,2.86,2.86,0,0,1-1.1-1.25,4.46,4.46,0,0,1-.38-1.91V23.9a.38.38,0,0,1,.38-.39H198a.38.38,0,0,1,.28.11.4.4,0,0,1,.1.28v4.4c0,1.32.58,2,1.75,2a1.73,1.73,0,0,0,1.32-.53A2.08,2.08,0,0,0,202,28.3V23.9a.38.38,0,0,1,.38-.39h1.41a.4.4,0,0,1,.27.11.41.41,0,0,1,.11.28v7.55a.39.39,0,0,1-.11.27.4.4,0,0,1-.27.11h-1.3a.36.36,0,0,1-.38-.38v-.66a3,3,0,0,1-1.07.88A3.48,3.48,0,0,1,199.41,32Z"/><path class="cls-8" d="M209.4,32a5.29,5.29,0,0,1-1.64-.22,3.84,3.84,0,0,1-1.11-.56,2.81,2.81,0,0,1-.64-.67,1.3,1.3,0,0,1-.22-.56.31.31,0,0,1,.1-.28.4.4,0,0,1,.27-.11h1.26l.11,0a.31.31,0,0,1,.13.09l.44.37a2.29,2.29,0,0,0,.55.33,2.34,2.34,0,0,0,1.85-.11.78.78,0,0,0,.42-.71.81.81,0,0,0-.18-.55,1.56,1.56,0,0,0-.68-.37,10,10,0,0,0-1.41-.36,6.42,6.42,0,0,1-1.49-.53,2.37,2.37,0,0,1-.88-.8,2.17,2.17,0,0,1-.28-1.12,2.09,2.09,0,0,1,.37-1.19,2.85,2.85,0,0,1,1.12-.94,4.12,4.12,0,0,1,1.85-.37,4.48,4.48,0,0,1,1.5.22,3.68,3.68,0,0,1,1.07.53,3.06,3.06,0,0,1,.65.65,1.2,1.2,0,0,1,.24.57.31.31,0,0,1-.1.28.35.35,0,0,1-.26.1h-1.18a.32.32,0,0,1-.14,0,.57.57,0,0,1-.13-.08l-.38-.34a1.83,1.83,0,0,0-.51-.31,1.89,1.89,0,0,0-.78-.13,1.44,1.44,0,0,0-.92.26.82.82,0,0,0-.32.67.78.78,0,0,0,.15.47,1.39,1.39,0,0,0,.61.37,9.66,9.66,0,0,0,1.41.37,5.17,5.17,0,0,1,1.71.57,2.31,2.31,0,0,1,.89.86,2.22,2.22,0,0,1,.27,1.08,2.09,2.09,0,0,1-.43,1.3,2.79,2.79,0,0,1-1.25.9A5.44,5.44,0,0,1,209.4,32Z"/><path class="cls-8" d="M215.1,31.83a.37.37,0,0,1-.27-.11.35.35,0,0,1-.11-.27V30a.38.38,0,0,1,.11-.29.37.37,0,0,1,.27-.11h1.49a.38.38,0,0,1,.4.4v1.49a.39.39,0,0,1-.11.27.42.42,0,0,1-.29.11Zm.1-3.1a.41.41,0,0,1-.28-.11.38.38,0,0,1-.11-.28V21a.38.38,0,0,1,.39-.39h1.29a.38.38,0,0,1,.28.11.41.41,0,0,1,.11.28v7.32a.38.38,0,0,1-.39.39Z"/></g></g></svg>