<svg xmlns="http://www.w3.org/2000/svg" viewBox="0 0 657.71 174.96"><defs><style>.cls-1,.cls-3{fill:#f7c532;}.cls-1{fill-rule:evenodd;}.cls-2{fill:#261f41;}</style></defs><g id="Layer_2" data-name="Layer 2"><g id="Layer_1-2" data-name="Layer 1"><path id="path-1" class="cls-1" d="M140.85,7.5a20.82,20.82,0,0,1,4.51,9.68l23.91,133.24A20.86,20.86,0,0,1,141.6,173.7L13.73,127.16A20.85,20.85,0,0,1,7.51,91.54l104-86.7A20.86,20.86,0,0,1,140.85,7.5ZM116.69,126.64a12.52,12.52,0,1,0,12.51,12.51A12.52,12.52,0,0,0,116.69,126.64Z"/><path class="cls-2" d="M223.94,129.5a2.5,2.5,0,0,1-2.6-2.59V59.5a2.5,2.5,0,0,1,2.6-2.59h46.25a2.5,2.5,0,0,1,2.59,2.59v8.82a2.5,2.5,0,0,1-2.59,2.59H237.52V88.44h30.59a2.48,2.48,0,0,1,2.6,2.59v8.81a2.41,2.41,0,0,1-.73,1.76,2.52,2.52,0,0,1-1.87.73H237.52v24.58a2.48,2.48,0,0,1-2.59,2.59Z"/><path class="cls-2" d="M308,130.54q-8.61,0-14.42-2.85a20.27,20.27,0,0,1-8.86-8.15,26.47,26.47,0,0,1-3.37-12.34c-.07-1.38-.11-3-.11-4.71s0-3.3.11-4.62a25.33,25.33,0,0,1,3.52-12.39,21.36,21.36,0,0,1,9-8.09,36.08,36.08,0,0,1,28.11,0,21.42,21.42,0,0,1,9,8.09,25.33,25.33,0,0,1,3.52,12.39,44.28,44.28,0,0,1,.21,4.62,47.12,47.12,0,0,1-.21,4.71,26.47,26.47,0,0,1-3.37,12.34,20.32,20.32,0,0,1-8.86,8.15A32.35,32.35,0,0,1,308,130.54Zm0-11.41q5.07,0,7.67-3.16t2.8-9.28c.07-1,.1-2.42.1-4.15s0-3.11-.1-4.15q-.21-6-2.8-9.23T308,86q-5.09,0-7.73,3.21t-2.85,9.23c-.07,1-.11,2.42-.11,4.15s0,3.11.11,4.15q.21,6.12,2.85,9.28T308,119.13Z"/><path class="cls-2" d="M370.36,130.54q-8.61,0-14.41-2.85a20.29,20.29,0,0,1-8.87-8.15,26.59,26.59,0,0,1-3.37-12.34c-.07-1.38-.11-3-.11-4.71s0-3.3.11-4.62a25.44,25.44,0,0,1,3.52-12.39,21.39,21.39,0,0,1,9-8.09,36.06,36.06,0,0,1,28.1,0,21.36,21.36,0,0,1,9,8.09,25.44,25.44,0,0,1,3.53,12.39c.13,1.32.2,2.85.2,4.62s-.07,3.33-.2,4.71a26.71,26.71,0,0,1-3.37,12.34,20.35,20.35,0,0,1-8.87,8.15A32.29,32.29,0,0,1,370.36,130.54Zm0-11.41c3.39,0,5.94-1,7.67-3.16s2.66-5.2,2.8-9.28c.07-1,.11-2.42.11-4.15s0-3.11-.11-4.15q-.21-6-2.8-9.23C376.3,87,373.75,86,370.36,86s-6,1.07-7.73,3.21-2.71,5.22-2.85,9.23c-.07,1-.1,2.42-.1,4.15s0,3.11.1,4.15q.21,6.12,2.85,9.28C364.4,118.08,367,119.13,370.36,119.13Z"/><path class="cls-2" d="M428,130.54a23.48,23.48,0,0,1-9.23-1.71,18.23,18.23,0,0,1-6.85-5,22.43,22.43,0,0,1-4.25-7.78,40,40,0,0,1-1.76-10c-.07-1.31-.11-2.5-.11-3.57s0-2.23.11-3.48a35.08,35.08,0,0,1,1.71-9.85,23.45,23.45,0,0,1,4.25-7.72,18.66,18.66,0,0,1,6.84-5.09A22.88,22.88,0,0,1,428,74.54a21.53,21.53,0,0,1,9.22,1.81,18.83,18.83,0,0,1,6.33,4.72V58.47a2.5,2.5,0,0,1,2.59-2.6h10.68a2.45,2.45,0,0,1,1.77.73,2.54,2.54,0,0,1,.72,1.87v68.44a2.52,2.52,0,0,1-.72,1.86,2.41,2.41,0,0,1-1.77.73h-9.95a2.37,2.37,0,0,1-1.76-.73,2.49,2.49,0,0,1-.73-1.86v-3.53a20.51,20.51,0,0,1-6.53,5.13A21.43,21.43,0,0,1,428,130.54Zm4.77-12.45a10,10,0,0,0,6.17-1.76,10.44,10.44,0,0,0,3.42-4.46,17,17,0,0,0,1.19-5.81,37,37,0,0,0,.21-3.94,34.17,34.17,0,0,0-.21-3.83,14.48,14.48,0,0,0-1.24-5.45A9.75,9.75,0,0,0,432.79,87a10.17,10.17,0,0,0-6.23,1.71,9.37,9.37,0,0,0-3.26,4.51,22.61,22.61,0,0,0-1.2,6.12,34.53,34.53,0,0,0,0,6.43,22.53,22.53,0,0,0,1.2,6.12,9.32,9.32,0,0,0,3.26,4.51A10.17,10.17,0,0,0,432.79,118.09Z"/><path class="cls-2" d="M475.09,129.5a2.5,2.5,0,0,1-2.59-2.59V58.47a2.5,2.5,0,0,1,2.59-2.6h11.2a2.45,2.45,0,0,1,1.77.73,2.54,2.54,0,0,1,.72,1.87V81.8a20.7,20.7,0,0,1,6.85-5.29,22.08,22.08,0,0,1,9.74-2,21.18,21.18,0,0,1,10.84,2.75,19,19,0,0,1,7.41,8A27.47,27.47,0,0,1,526.32,98v28.93a2.48,2.48,0,0,1-2.59,2.59h-11.3a2.39,2.39,0,0,1-1.77-.73,2.52,2.52,0,0,1-.72-1.86V98.6q0-5.5-2.7-8.56c-1.8-2-4.35-3.06-7.67-3.06A10.39,10.39,0,0,0,491.74,90q-3,3.06-3,8.56v28.31a2.52,2.52,0,0,1-.72,1.86,2.41,2.41,0,0,1-1.77.73Z"/><path class="cls-2" d="M558.57,130.54a20.41,20.41,0,0,1-10.63-2.75,18.28,18.28,0,0,1-7.15-8,28.79,28.79,0,0,1-2.54-12.7V78.17A2.56,2.56,0,0,1,539,76.3a2.42,2.42,0,0,1,1.77-.72h11a2.48,2.48,0,0,1,2.59,2.59v28.31q0,11.61,10.16,11.61a10.06,10.06,0,0,0,7.73-3.06c1.9-2,2.85-4.89,2.85-8.55V78.17a2.48,2.48,0,0,1,2.59-2.59h11a2.44,2.44,0,0,1,1.77.72,2.56,2.56,0,0,1,.72,1.87v48.74a2.52,2.52,0,0,1-.72,1.86,2.41,2.41,0,0,1-1.77.73H578.48a2.5,2.5,0,0,1-2.59-2.59v-4a17.53,17.53,0,0,1-6.95,5.71A24.6,24.6,0,0,1,558.57,130.54Z"/><path class="cls-2" d="M635.52,130.54a21.44,21.44,0,0,1-9.86-2,19.23,19.23,0,0,1-6.42-5.13v3.53a2.5,2.5,0,0,1-2.6,2.59h-9.85a2.48,2.48,0,0,1-2.59-2.59V58.47a2.48,2.48,0,0,1,2.59-2.6h10.68a2.45,2.45,0,0,1,1.77.73,2.54,2.54,0,0,1,.72,1.87v22.6a20,20,0,0,1,6.43-4.72,21.33,21.33,0,0,1,9.13-1.81,22.65,22.65,0,0,1,9.38,1.81,19.35,19.35,0,0,1,6.79,5.09A23,23,0,0,1,656,89.16,32.78,32.78,0,0,1,657.6,99c.07,1.25.11,2.4.11,3.48s0,2.26-.11,3.57a36,36,0,0,1-1.71,10,23.45,23.45,0,0,1-4.25,7.78,17.85,17.85,0,0,1-6.74,5A23.69,23.69,0,0,1,635.52,130.54Zm-4.67-12.45a10.14,10.14,0,0,0,6.22-1.71,9.41,9.41,0,0,0,3.27-4.51,22.92,22.92,0,0,0,1.19-6.12,49.27,49.27,0,0,0,0-6.43,23,23,0,0,0-1.19-6.12,9.45,9.45,0,0,0-3.27-4.51A10.14,10.14,0,0,0,630.85,87a10.3,10.3,0,0,0-6.07,1.66,10.66,10.66,0,0,0-3.52,4.2,13.81,13.81,0,0,0-1.3,5.45c-.07,1.24-.1,2.52-.1,3.83s0,2.63.1,3.94a19.52,19.52,0,0,0,1.25,5.81,9.85,9.85,0,0,0,3.42,4.46A10.17,10.17,0,0,0,630.85,118.09Z"/><circle class="cls-3" cx="564.53" cy="53.93" r="9.5"/></g></g></svg>