<?xml version="1.0" encoding="UTF-8"?>
<svg width="24px" height="24px" viewBox="0 0 24 24" version="1.1" xmlns="http://www.w3.org/2000/svg" xmlns:xlink="http://www.w3.org/1999/xlink">
    <!-- Generator: Sketch 64 (93537) - https://sketch.com -->
    <title>menu</title>
    <desc>Created with Sketch.</desc>
    <g id="Page-1" stroke="none" stroke-width="1" fill="none" fill-rule="evenodd">
        <g id="menu" fill="#231D41" fill-rule="nonzero">
            <path d="M12.001953,0 C5.3839531,0 0,5.383 0,12 C0,18.617 5.383,24 12,24 C13.788,24 15.476,23.589766 17,22.884766 L17,20.632812 C15.528,21.492812 13.826,22 12,22 C6.486,22 2,17.514 2,12 C2,6.486 6.486,2 12,2 C13.041,2 14.037469,2.1766094 14.980469,2.4746094 C15.297469,1.8446094 15.687672,1.2656719 16.138672,0.7636719 C14.846672,0.2846719 13.459953,0 12.001953,0 Z M20,0.9121094 C18.677032,0.9121094 17.67491,1.8328542 17.025391,2.8984375 C16.375871,3.9640208 16,5.2729224 16,6.580078 C16,7.887234 16.41525,9.006974 17.162109,9.773438 C17.6657,10.290247 18.316394,10.562981 19,10.728516 L19,23 L21,23 L21,10.728516 C21.683606,10.562981 22.3343,10.290247 22.837891,9.773438 C23.58475,9.006973 24,7.887234 24,6.580078 C24,5.2729224 23.624129,3.9640208 22.974609,2.8984375 C22.32509,1.8328542 21.322968,0.9121094 20,0.9121094 Z M20,2.9121094 C20.334032,2.9121094 20.831348,3.2237864 21.267578,3.9394531 C21.703808,4.6551199 22,5.678234 22,6.580078 C22,7.481922 21.743188,8.029167 21.404297,8.376953 C21.065406,8.724739 20.602389,8.9121094 20,8.9121094 C19.397611,8.9121094 18.934594,8.724739 18.595703,8.376953 C18.256812,8.029167 18,7.481922 18,6.580078 C18,5.678234 18.296192,4.6551199 18.732422,3.9394531 C19.168652,3.2237864 19.665968,2.9121094 20,2.9121094 Z M12,4 C7.589,4 4,7.589 4,12 C4,16.411 7.589,20 12,20 L12,18 C8.691,18 6,15.309 6,12 C6,8.691 8.691,6 12,6 C12.706,6 13.380766,6.129516 14.009766,6.353516 C14.027766,5.6785156 14.121063,4.9988906 14.289062,4.3378906 C13.563063,4.1208906 12.796,4 12,4 Z" id="Shape"></path>
        </g>
    </g>
</svg>